<?xml version="1.0" encoding="utf-8"?>
<!-- Generator: Adobe Illustrator 12.0.0, SVG Export Plug-In . SVG Version: 6.00 Build 51448)  -->
<!DOCTYPE svg PUBLIC "-//W3C//DTD SVG 1.1//EN" "http://www.w3.org/Graphics/SVG/1.1/DTD/svg11.dtd" [
	<!ENTITY ns_svg "http://www.w3.org/2000/svg">
	<!ENTITY ns_xlink "http://www.w3.org/1999/xlink">
]>
<svg  version="1.1" id="レイヤー_1" xmlns="&ns_svg;" xmlns:xlink="&ns_xlink;" width="54.908" height="44.418"
	 viewBox="0 0 54.908 44.418" overflow="visible" enable-background="new 0 0 54.908 44.418" xml:space="preserve">
<g id="名称未設定_1.psd">
	<g>
		<path fill-rule="evenodd" clip-rule="evenodd" fill="#FFFFFF" d="M0,41.9c0.047-0.901,0.387-1.833,0.74-2.651
			c1.008-2.341,2.529-4.373,4.193-5.89c2.335-2.126,4.82-4.333,8.972-4.47c0.323-0.46,0.511-0.957,1.048-1.233
			c0.555-0.286,1.274-0.365,1.912-0.524c0.035,0.145-0.146,0.267-0.247,0.4c-0.33,0.439-0.612,0.985-0.894,1.418
			c0.369,0.002,0.881,0.075,1.295,0.124c0.424,0.051,0.971,0.003,0.925,0.462c-0.103,0.176-0.363,0.061-0.524,0.031
			c-0.596-0.109-1.273-0.169-1.912-0.185c-1.527,2.624-3.428,6.002-4.748,9.126c-0.438,1.035-1.025,2.342-1.018,3.638
			c0.005,0.883,0.395,1.317,1.202,1.388c1.399,0.123,2.604-0.619,3.515-1.172c2.202-1.335,4.071-3.118,5.735-4.871
			c0.348-0.367,0.843-0.774,1.079-1.141c0.258-0.4,0.442-0.886,0.679-1.325c0.235-0.439,0.442-0.894,0.678-1.327
			c1.426-2.614,3.006-5.043,4.533-7.522c2.024-3.289,3.935-6.701,5.981-10.082c0.989-1.635,1.949-3.358,3.021-4.995
			c1.057-1.611,2.123-3.243,3.391-4.655c1.246-1.387,2.707-2.558,4.286-3.73c1.017-0.755,2.477-1.661,3.761-2.25
			C48.099,0.236,48.708-0.005,49.177,0c1.76,0.018,0.964,2.354,0.555,3.422c-0.833,2.176-1.958,4.043-3.083,5.828
			c-4.607,7.307-10.494,13.374-18.037,17.604c-1.801,3.059-3.667,6.145-5.149,9.65c-0.529,1.252-1.48,3.485-0.739,4.964
			c0.635,1.267,2.945,0.827,4.162,0.339c1.993-0.801,3.643-2.159,5.118-3.453c0.311-0.273,0.69-0.521,0.925-0.802
			c0.189-0.228,0.333-0.553,0.493-0.802c1.208-1.881,2.688-3.418,4.409-4.779c1.925-1.521,4.063-3.007,7.4-3.082
			c0.329-0.439,0.492-0.95,1.017-1.233c0.552-0.298,1.306-0.347,1.942-0.524c0.034,0.145-0.146,0.267-0.247,0.4
			c-0.33,0.439-0.612,0.985-0.894,1.418c0.369,0.002,0.88,0.075,1.295,0.124c0.424,0.051,0.971,0.003,0.925,0.462
			c-0.099,0.176-0.362,0.061-0.524,0.031c-0.186-0.034-0.38-0.071-0.585-0.092c-0.289-0.029-1.041-0.175-1.295-0.093
			c-0.249,0.079-0.651,1.07-0.863,1.448c-1.405,2.502-2.814,5.078-3.916,7.708c-0.41,0.979-1.039,2.318-1.017,3.639
			c0.027,1.715,1.807,1.469,3.021,1.017c2.095-0.778,3.667-2.197,5.118-3.483c1.791-1.587,3.411-3.306,4.903-5.118
			c0.193-0.235,0.412-0.671,0.739-0.647c0.214,0.353-0.215,0.641-0.4,0.863c-0.679,0.814-1.401,1.586-2.096,2.343
			c-1.847,2.009-3.934,4.013-6.32,5.52c-1.17,0.738-2.553,1.601-4.194,1.726c-0.735,0.058-1.383-0.017-1.85-0.276
			c-1.338-0.746-0.94-2.688-0.494-4.039c0.434-1.31,0.986-2.379,1.634-3.391c-1.501,1.778-3.44,4.084-5.611,5.518
			c-0.735,0.486-1.585,1.084-2.589,1.172c-1.045,0.091-1.583-0.393-1.604-1.295c-0.028-1.213,0.598-2.502,0.957-3.36
			c-1.614,1.345-3.601,2.897-5.951,3.854c-1.152,0.47-2.708,0.843-4.193,0.616c-1.293-0.195-2.267-1.107-2.282-2.65
			c-0.012-1.199,0.511-2.022,0.833-2.96c-0.379,0.267-0.687,0.656-1.049,1.017c-1.746,1.746-3.707,3.446-5.95,4.687
			c-1.128,0.623-2.436,1.258-4.131,1.109C7.3,44.201,7.6,41.749,8.17,40.051c0.432-1.288,0.999-2.355,1.634-3.36
			c-1.714,2.02-3.509,4.163-5.857,5.703c-0.744,0.488-1.719,1.133-2.898,0.986C0.356,43.295,0.073,42.858,0,42.146
			C0,42.064,0,41.982,0,41.9z M29.167,26.021c4.502-2.554,8.213-5.896,11.563-9.835c1.593-1.873,3.133-4.07,4.347-6.352
			c0.91-1.71,1.85-3.49,2.221-5.827c0.138-0.874,0.239-1.789-0.309-2.128c-0.605-0.373-1.443,0.234-1.88,0.648
			c-0.468,0.441-0.909,0.93-1.264,1.356c-2.406,2.891-4.566,5.992-6.599,9.187c-2.753,4.331-5.434,8.599-8.108,12.919
			c0.003,0.035-0.044,0.049,0,0.063C29.138,26.033,29.141,26.016,29.167,26.021z M9.065,31.14c-1.123,0.906-2.069,1.96-2.898,3.022
			c-0.851,1.087-1.664,2.295-2.313,3.606c-0.47,0.95-1.013,2.016-1.264,3.176c-0.08,0.371-0.222,0.861,0.093,1.202
			c0.791,0.07,1.435-0.485,2.003-0.894c2.966-2.128,5.033-4.896,6.875-8.079c0.731-1.261,1.455-2.543,2.097-3.823
			C11.688,29.313,10.269,30.167,9.065,31.14z M40.39,31.14c-1.123,0.906-2.069,1.96-2.898,3.022
			c-0.851,1.087-1.664,2.295-2.312,3.606c-0.471,0.95-1.013,2.016-1.264,3.176c-0.081,0.371-0.222,0.861,0.092,1.202
			c0.791,0.07,1.435-0.485,2.004-0.894c2.965-2.128,5.033-4.896,6.875-8.079c0.731-1.261,1.455-2.543,2.096-3.823
			C43.013,29.313,41.594,30.167,40.39,31.14z"/>
	</g>
</g>
</svg>
